<svg width="20" height="23" viewBox="0 0 20 23" fill="none" xmlns="http://www.w3.org/2000/svg">
<path d="M10 2.3C7.5454 2.3 5.55556 4.35949 5.55556 6.9C5.55556 9.44051 7.5454 11.5 10 11.5C12.4546 11.5 14.4444 9.44051 14.4444 6.9C14.4444 4.35949 12.4546 2.3 10 2.3ZM3.33333 6.9C3.33333 3.08923 6.3181 0 10 0C13.6819 0 16.6667 3.08923 16.6667 6.9C16.6667 10.7108 13.6819 13.8 10 13.8C6.3181 13.8 3.33333 10.7108 3.33333 6.9ZM5.55556 18.4C3.71461 18.4 2.22222 19.9446 2.22222 21.85C2.22222 22.4851 1.72476 23 1.11111 23C0.497461 23 0 22.4851 0 21.85C0 18.6744 2.48731 16.1 5.55556 16.1H14.4444C17.5127 16.1 20 18.6744 20 21.85C20 22.4851 19.5025 23 18.8889 23C18.2752 23 17.7778 22.4851 17.7778 21.85C17.7778 19.9446 16.2854 18.4 14.4444 18.4H5.55556Z" fill="white"/>
</svg>
