<svg width="546" height="743" viewBox="0 0 546 743" fill="none" xmlns="http://www.w3.org/2000/svg">
<path d="M143.784 979.94C230.401 793.593 250.229 599.035 256.946 162.255L288.62 162.344C293.656 585.358 307.006 789.436 393.783 980.644L143.784 979.94Z" fill="url(#paint0_linear_1_163)"/>
<path d="M236.785 979.202C269.549 700.332 266.352 509.025 257.219 162.256L288.952 162.345C274.964 520.144 269.996 713.224 304.785 979.393L236.785 979.202Z" fill="url(#paint1_linear_1_163)"/>
<path fill-rule="evenodd" clip-rule="evenodd" d="M215.5 429.997L216.3 145.999L217.3 146.001L216.5 430L215.5 429.997Z" fill="url(#paint2_linear_1_163)"/>
<path fill-rule="evenodd" clip-rule="evenodd" d="M242.257 279.214L242.699 122.215L243.699 122.218L243.257 279.217L242.257 279.214Z" fill="url(#paint3_linear_1_163)"/>
<path fill-rule="evenodd" clip-rule="evenodd" d="M313.369 239.415L313.682 128.415L314.682 128.418L314.369 239.418L313.369 239.415Z" fill="url(#paint4_linear_1_163)"/>
<path fill-rule="evenodd" clip-rule="evenodd" d="M330.5 346L330.5 156L331.5 156L331.5 346L330.5 346Z" fill="url(#paint5_linear_1_163)"/>
<path fill-rule="evenodd" clip-rule="evenodd" d="M312.471 199.309C312.892 198.899 312.984 198.602 312.985 198.414C312.986 198.225 312.895 197.927 312.476 197.515C312.055 197.101 311.38 196.653 310.42 196.196C308.506 195.285 305.671 194.434 302.086 193.707C294.934 192.255 285.005 191.335 274.005 191.304C263.005 191.273 253.071 192.137 245.91 193.548C242.322 194.256 239.482 195.09 237.562 195.991C236.6 196.443 235.923 196.887 235.499 197.298C235.078 197.708 234.986 198.005 234.985 198.194C234.985 198.383 235.075 198.68 235.494 199.092C235.915 199.506 236.59 199.954 237.55 200.411C239.464 201.323 242.299 202.173 245.884 202.901C253.036 204.352 262.965 205.273 273.965 205.304C284.966 205.335 294.899 204.47 302.06 203.059C305.649 202.352 308.489 201.517 310.408 200.616C311.37 200.165 312.048 199.721 312.471 199.309ZM273.963 206.304C296.054 206.366 313.973 202.835 313.985 198.416C313.997 193.998 296.099 190.366 274.008 190.304C251.916 190.242 233.998 193.773 233.985 198.191C233.973 202.609 251.871 206.241 273.963 206.304Z" fill="url(#paint6_linear_1_163)"/>
<path fill-rule="evenodd" clip-rule="evenodd" d="M331.009 224.173C331.684 223.506 331.916 222.938 331.917 222.467C331.918 221.996 331.69 221.426 331.018 220.755C330.344 220.082 329.297 219.383 327.858 218.686C324.984 217.294 320.76 216.009 315.458 214.915C304.871 212.731 290.194 211.349 273.948 211.304C257.702 211.258 243.018 212.556 232.419 214.681C227.11 215.745 222.879 217.006 219.998 218.382C218.555 219.071 217.504 219.764 216.826 220.434C216.151 221.101 215.919 221.669 215.917 222.14C215.916 222.611 216.145 223.181 216.816 223.852C217.49 224.525 218.538 225.224 219.977 225.921C222.85 227.313 227.074 228.598 232.376 229.692C242.964 231.876 257.64 233.258 273.886 233.303C290.132 233.349 304.816 232.051 315.416 229.926C320.724 228.862 324.955 227.601 327.836 226.225C329.279 225.536 330.331 224.843 331.009 224.173ZM273.883 234.303C306.468 234.395 332.898 229.097 332.917 222.47C332.936 215.842 306.536 210.395 273.951 210.304C241.366 210.212 214.936 215.51 214.917 222.137C214.899 228.765 241.299 234.212 273.883 234.303Z" fill="url(#paint7_linear_1_163)"/>
<path fill-rule="evenodd" clip-rule="evenodd" d="M358.297 264.46C359.366 263.403 359.806 262.431 359.808 261.546C359.811 260.661 359.377 259.686 358.313 258.623C357.248 257.558 355.622 256.481 353.437 255.423C349.073 253.309 342.691 251.372 334.721 249.727C318.798 246.442 296.749 244.368 272.356 244.3C247.964 244.231 225.903 246.18 209.962 249.376C201.983 250.975 195.59 252.877 191.214 254.966C189.024 256.012 187.392 257.08 186.32 258.139C185.251 259.196 184.811 260.168 184.809 261.053C184.806 261.938 185.24 262.913 186.303 263.976C187.369 265.041 188.995 266.118 191.18 267.176C195.544 269.29 201.926 271.228 209.896 272.872C225.819 276.157 247.868 278.231 272.261 278.3C296.653 278.368 318.714 276.419 334.655 273.223C342.634 271.624 349.027 269.722 353.403 267.633C355.593 266.588 357.225 265.519 358.297 264.46ZM272.258 279.3C321.135 279.437 360.78 271.49 360.808 261.549C360.836 251.608 321.236 243.437 272.359 243.3C223.482 243.162 183.837 251.109 183.809 261.05C183.781 270.991 223.381 279.162 272.258 279.3Z" fill="url(#paint8_linear_1_163)"/>
<path fill-rule="evenodd" clip-rule="evenodd" d="M404.064 348.605C405.788 346.899 406.572 345.253 406.576 343.677C406.581 342.101 405.806 340.452 404.091 338.736C402.375 337.018 399.788 335.31 396.365 333.651C389.525 330.334 379.558 327.309 367.157 324.747C342.372 319.627 308.076 316.4 270.153 316.293C232.23 316.186 197.916 319.221 173.103 324.201C160.688 326.693 150.704 329.661 143.845 332.94C140.413 334.58 137.817 336.273 136.09 337.982C134.366 339.687 133.582 341.333 133.577 342.909C133.573 344.485 134.348 346.134 136.062 347.85C137.779 349.568 140.366 351.276 143.788 352.935C150.629 356.252 160.596 359.277 172.997 361.839C197.782 366.959 232.078 370.186 270.001 370.293C307.924 370.4 342.238 367.365 367.051 362.385C379.466 359.894 389.45 356.925 396.309 353.646C399.741 352.006 402.337 350.313 404.064 348.605ZM269.998 371.293C345.937 371.507 407.533 359.144 407.576 343.68C407.62 328.216 346.095 315.507 270.156 315.293C194.217 315.079 132.621 327.442 132.577 342.906C132.534 358.37 194.059 371.079 269.998 371.293Z" fill="url(#paint9_linear_1_163)"/>
<path fill-rule="evenodd" clip-rule="evenodd" d="M538.883 504.027C542.41 500.536 544.144 497.04 544.154 493.566C544.164 490.091 542.45 486.585 538.942 483.074C535.432 479.561 530.198 476.119 523.364 472.805C509.702 466.179 489.858 460.163 465.249 455.079C416.048 444.914 348.011 438.513 272.809 438.301C197.606 438.089 129.534 444.107 80.2767 453.995C55.6397 458.94 35.7622 464.844 22.0627 471.393C15.2107 474.669 9.95713 478.081 6.42742 481.575C2.90016 485.066 1.16605 488.562 1.15627 492.036C1.14649 495.511 2.86087 499.017 6.36842 502.528C9.8784 506.041 15.1127 509.483 21.9461 512.797C35.6085 519.423 55.4525 525.439 80.0612 530.523C129.262 540.688 197.299 547.089 272.502 547.301C347.704 547.513 415.776 541.495 465.034 531.607C489.671 526.662 509.548 520.758 523.248 514.209C530.1 510.933 535.353 507.521 538.883 504.027ZM272.499 548.301C422.996 548.725 545.068 524.22 545.154 493.568C545.24 462.917 423.308 437.725 272.811 437.301C122.314 436.877 0.242589 461.382 0.156274 492.034C0.069959 522.685 122.002 547.877 272.499 548.301Z" fill="url(#paint10_linear_1_163)"/>
<path fill-rule="evenodd" clip-rule="evenodd" d="M292.099 169.709C292.099 169.709 292.098 169.711 292.095 169.715C292.097 169.711 292.099 169.709 292.099 169.709ZM291.94 169.854C291.777 169.732 291.511 169.58 291.112 169.414C290.201 169.033 288.82 168.667 287.039 168.351C283.494 167.72 278.556 167.317 273.072 167.301C267.589 167.286 262.648 167.661 259.1 168.272C257.317 168.579 255.935 168.937 255.021 169.312C254.621 169.476 254.354 169.626 254.19 169.748C254.353 169.871 254.62 170.022 255.018 170.189C255.93 170.569 257.311 170.935 259.091 171.252C262.636 171.882 267.575 172.286 273.058 172.301C278.542 172.317 283.482 171.941 287.031 171.33C288.813 171.024 290.196 170.665 291.11 170.29C291.51 170.126 291.777 169.976 291.94 169.854ZM254.033 169.602C254.033 169.602 254.034 169.604 254.036 169.607C254.034 169.604 254.033 169.602 254.033 169.602ZM254.032 169.893C254.032 169.893 254.033 169.891 254.036 169.888C254.033 169.891 254.032 169.893 254.032 169.893ZM292.094 169.995C292.097 169.998 292.098 170 292.098 170C292.098 170 292.096 169.998 292.094 169.995ZM273.055 173.301C284.101 173.332 293.06 171.79 293.065 169.857C293.071 167.924 284.121 166.332 273.075 166.301C262.03 166.27 253.071 167.812 253.065 169.745C253.06 171.678 262.01 173.27 273.055 173.301Z" fill="url(#paint11_linear_1_163)"/>
<path fill-rule="evenodd" clip-rule="evenodd" d="M294.073 172.279C294.073 172.279 294.073 172.281 294.071 172.285C294.072 172.281 294.073 172.279 294.073 172.279ZM294.009 172.36C293.993 172.343 293.973 172.323 293.948 172.301C293.769 172.141 293.446 171.939 292.937 171.719C291.926 171.281 290.402 170.862 288.442 170.5C284.538 169.778 279.102 169.318 273.067 169.301C267.033 169.284 261.595 169.714 257.687 170.413C255.725 170.764 254.198 171.175 253.185 171.607C252.674 171.824 252.351 172.024 252.17 172.183C252.145 172.206 252.125 172.225 252.109 172.242C252.125 172.259 252.145 172.278 252.17 172.301C252.349 172.461 252.672 172.663 253.181 172.883C254.192 173.321 255.716 173.74 257.676 174.102C261.581 174.823 267.017 175.284 273.051 175.301C279.085 175.318 284.523 174.888 288.431 174.189C290.393 173.838 291.92 173.427 292.933 172.995C293.444 172.777 293.767 172.578 293.948 172.418C293.973 172.396 293.993 172.377 294.009 172.36ZM252.045 172.161C252.045 172.161 252.046 172.163 252.048 172.166C252.046 172.163 252.045 172.161 252.045 172.161ZM252.045 172.322C252.045 172.322 252.045 172.321 252.047 172.317C252.046 172.321 252.045 172.322 252.045 172.322ZM294.07 172.435C294.072 172.439 294.073 172.441 294.073 172.441C294.073 172.441 294.072 172.439 294.07 172.435ZM273.048 176.301C285.198 176.335 295.053 174.572 295.059 172.363C295.065 170.154 285.221 168.335 273.07 168.301C260.92 168.267 251.065 170.03 251.059 172.239C251.053 174.448 260.898 176.267 273.048 176.301Z" fill="url(#paint12_linear_1_163)"/>
<path fill-rule="evenodd" clip-rule="evenodd" d="M297.054 175.823C297.054 175.823 297.054 175.825 297.052 175.828C297.053 175.825 297.054 175.823 297.054 175.823ZM297.028 175.868C297.004 175.835 296.96 175.782 296.88 175.712C296.661 175.518 296.279 175.284 295.694 175.033C294.531 174.534 292.786 174.06 290.554 173.652C286.107 172.839 279.921 172.32 273.058 172.301C266.195 172.281 260.006 172.765 255.554 173.553C253.319 173.949 251.572 174.413 250.406 174.905C249.82 175.153 249.437 175.385 249.217 175.577C249.136 175.648 249.092 175.7 249.068 175.733C249.092 175.767 249.136 175.819 249.216 175.889C249.435 176.083 249.816 176.317 250.402 176.568C251.565 177.067 253.309 177.541 255.541 177.949C259.989 178.763 266.175 179.281 273.038 179.301C279.901 179.32 286.09 178.836 290.542 178.048C292.776 177.652 294.524 177.188 295.689 176.696C296.276 176.448 296.659 176.216 296.879 176.024C296.959 175.953 297.004 175.902 297.028 175.868ZM249.042 175.688C249.042 175.688 249.043 175.689 249.044 175.693C249.042 175.689 249.042 175.688 249.042 175.688ZM249.042 175.778C249.041 175.778 249.042 175.777 249.043 175.773C249.042 175.777 249.042 175.778 249.042 175.778ZM297.052 175.908C297.054 175.912 297.054 175.913 297.054 175.913C297.054 175.913 297.053 175.912 297.052 175.908ZM273.035 180.301C286.842 180.339 298.041 178.356 298.048 175.871C298.055 173.386 286.868 171.339 273.061 171.301C259.253 171.262 248.055 173.245 248.048 175.73C248.041 178.215 259.228 180.262 273.035 180.301Z" fill="url(#paint13_linear_1_163)"/>
<path fill-rule="evenodd" clip-rule="evenodd" d="M302.031 183.346C302.031 183.346 302.031 183.347 302.03 183.35C302.031 183.347 302.031 183.346 302.031 183.346ZM302.012 183.383C301.986 183.341 301.924 183.263 301.786 183.15C301.502 182.916 301.021 182.646 300.305 182.362C298.885 181.798 296.769 181.267 294.083 180.811C288.726 179.903 281.285 179.324 273.038 179.301C264.791 179.278 257.348 179.814 251.985 180.693C249.296 181.133 247.178 181.652 245.754 182.208C245.037 182.488 244.555 182.756 244.269 182.988C244.13 183.1 244.068 183.177 244.041 183.219C244.068 183.261 244.13 183.339 244.267 183.452C244.552 183.685 245.033 183.956 245.748 184.24C247.169 184.804 249.284 185.335 251.971 185.791C257.328 186.699 264.769 187.278 273.016 187.301C281.262 187.324 288.706 186.788 294.068 185.909C296.758 185.469 298.876 184.95 300.3 184.394C301.017 184.113 301.499 183.846 301.785 183.614C301.924 183.502 301.986 183.424 302.012 183.383ZM244.023 183.183C244.023 183.183 244.023 183.184 244.024 183.186C244.023 183.184 244.023 183.183 244.023 183.183ZM244.023 183.256C244.022 183.256 244.023 183.255 244.024 183.252C244.023 183.255 244.023 183.256 244.023 183.256ZM302.03 183.416C302.031 183.418 302.031 183.419 302.031 183.419C302.031 183.419 302.03 183.418 302.03 183.416ZM273.013 188.301C289.581 188.348 303.019 186.147 303.027 183.385C303.035 180.624 289.609 178.348 273.041 178.301C256.472 178.254 243.035 180.455 243.027 183.216C243.019 185.978 256.444 188.254 273.013 188.301Z" fill="url(#paint14_linear_1_163)"/>
<path d="M254.781 163.463L250.085 154.463C249.738 153.797 250.221 153 250.972 153H295.673C296.424 153 296.907 153.797 296.559 154.463L291.864 163.463C291.691 163.793 291.35 164 290.977 164H255.668C255.295 164 254.953 163.793 254.781 163.463Z" fill="#EDEFF0"/>
<path d="M221.252 168C218.252 165.429 221.252 131 249.252 112.5H252.252V155H244.752C239.253 155 224.252 170.571 221.252 168Z" fill="url(#paint15_linear_1_163)"/>
<path d="M325.252 168C328.252 165.429 325.252 131 297.252 112.5H294.252V155H301.752C307.252 155 322.253 170.571 325.252 168Z" fill="url(#paint16_linear_1_163)"/>
<path d="M250.253 46.9999L250.253 155H296.253V46.9999C296.253 34.9999 281.753 -6.10352e-05 273.253 -6.10352e-05C264.253 -6.10352e-05 250.253 34.9999 250.253 46.9999Z" fill="url(#paint17_linear_1_163)"/>
<path fill-rule="evenodd" clip-rule="evenodd" d="M273.125 34.5645C269.097 34.5579 264.987 35.4898 259.593 37.4432C259.074 37.6312 258.5 37.3627 258.312 36.8434C258.124 36.3241 258.393 35.7507 258.912 35.5627C264.413 33.5708 268.771 32.5574 273.128 32.5645C277.486 32.5716 281.762 33.5995 287.098 35.5645C287.616 35.7554 287.882 36.3303 287.691 36.8485C287.5 37.3668 286.925 37.6322 286.407 37.4413C281.178 35.5157 277.152 34.571 273.125 34.5645Z" fill="url(#paint18_linear_1_163)"/>
<path d="M266.753 168C266.753 173 269.753 176.5 273.253 176.5C276.253 176.5 279.345 173.5 279.253 168C278.797 140.973 276.253 112 273.253 112C270.253 112 268.565 130.36 266.753 168Z" fill="url(#paint19_linear_1_163)"/>
<defs>
<linearGradient id="paint0_linear_1_163" x1="271.086" y1="162.295" x2="269.832" y2="902.624" gradientUnits="userSpaceOnUse">
<stop stop-color="#7D2042" stop-opacity="0.52"/>
<stop offset="1" stop-color="#FFC0B0" stop-opacity="0"/>
</linearGradient>
<linearGradient id="paint1_linear_1_163" x1="273.086" y1="162.301" x2="270.785" y2="979.297" gradientUnits="userSpaceOnUse">
<stop offset="0.119792" stop-color="#B271E4" stop-opacity="0.31"/>
<stop offset="0.875" stop-color="#FF708A" stop-opacity="0"/>
</linearGradient>
<linearGradient id="paint2_linear_1_163" x1="217.3" y1="146.001" x2="216.5" y2="430" gradientUnits="userSpaceOnUse">
<stop stop-color="#FAFAFA" stop-opacity="0"/>
<stop offset="0.494792" stop-color="#C74646"/>
<stop offset="1" stop-color="#FAFAFA" stop-opacity="0"/>
</linearGradient>
<linearGradient id="paint3_linear_1_163" x1="243.699" y1="122.218" x2="243.257" y2="279.217" gradientUnits="userSpaceOnUse">
<stop stop-color="#FAFAFA" stop-opacity="0"/>
<stop offset="0.494792" stop-color="#C74646"/>
<stop offset="1" stop-color="#FAFAFA" stop-opacity="0"/>
</linearGradient>
<linearGradient id="paint4_linear_1_163" x1="314.682" y1="128.418" x2="314.369" y2="239.418" gradientUnits="userSpaceOnUse">
<stop stop-color="#FAFAFA" stop-opacity="0"/>
<stop offset="0.494792" stop-color="#C74646"/>
<stop offset="1" stop-color="#FAFAFA" stop-opacity="0"/>
</linearGradient>
<linearGradient id="paint5_linear_1_163" x1="331.5" y1="156" x2="331.5" y2="346" gradientUnits="userSpaceOnUse">
<stop stop-color="#FAFAFA" stop-opacity="0"/>
<stop offset="0.494792" stop-color="#C74646"/>
<stop offset="1" stop-color="#FAFAFA" stop-opacity="0"/>
</linearGradient>
<linearGradient id="paint6_linear_1_163" x1="273.523" y1="206.302" x2="273.568" y2="190.303" gradientUnits="userSpaceOnUse">
<stop stop-color="#AB5A46"/>
<stop offset="1" stop-color="#E99682"/>
</linearGradient>
<linearGradient id="paint7_linear_1_163" x1="273.235" y1="234.302" x2="273.303" y2="210.302" gradientUnits="userSpaceOnUse">
<stop stop-color="#AB5A46"/>
<stop offset="1" stop-color="#E99682"/>
</linearGradient>
<linearGradient id="paint8_linear_1_163" x1="271.285" y1="279.297" x2="271.387" y2="243.297" gradientUnits="userSpaceOnUse">
<stop stop-color="#5A46AB"/>
<stop offset="1" stop-color="#E782E9"/>
</linearGradient>
<linearGradient id="paint9_linear_1_163" x1="268.487" y1="371.289" x2="268.645" y2="315.289" gradientUnits="userSpaceOnUse">
<stop stop-color="#5A46AB"/>
<stop offset="1" stop-color="#E782E9"/>
</linearGradient>
<linearGradient id="paint10_linear_1_163" x1="269.504" y1="548.292" x2="269.817" y2="437.293" gradientUnits="userSpaceOnUse">
<stop stop-color="#5A46AB"/>
<stop offset="1" stop-color="#E782E9"/>
</linearGradient>
<linearGradient id="paint11_linear_1_163" x1="272.836" y1="173.3" x2="272.855" y2="166.301" gradientUnits="userSpaceOnUse">
<stop stop-color="#AB5A46"/>
<stop offset="1" stop-color="#E99682"/>
</linearGradient>
<linearGradient id="paint12_linear_1_163" x1="272.806" y1="176.3" x2="272.829" y2="168.3" gradientUnits="userSpaceOnUse">
<stop stop-color="#AB5A46"/>
<stop offset="1" stop-color="#E99682"/>
</linearGradient>
<linearGradient id="paint13_linear_1_163" x1="272.76" y1="180.3" x2="272.786" y2="171.3" gradientUnits="userSpaceOnUse">
<stop stop-color="#AB5A46"/>
<stop offset="1" stop-color="#E99682"/>
</linearGradient>
<linearGradient id="paint14_linear_1_163" x1="272.683" y1="188.3" x2="272.711" y2="178.3" gradientUnits="userSpaceOnUse">
<stop stop-color="#AB5A46"/>
<stop offset="1" stop-color="#E99682"/>
</linearGradient>
<linearGradient id="paint15_linear_1_163" x1="252.252" y1="112.5" x2="204.15" y2="140.031" gradientUnits="userSpaceOnUse">
<stop stop-color="#C51092"/>
<stop offset="1" stop-color="#ED7558"/>
</linearGradient>
<linearGradient id="paint16_linear_1_163" x1="294.252" y1="112.5" x2="342.354" y2="140.031" gradientUnits="userSpaceOnUse">
<stop stop-color="#C51092"/>
<stop offset="1" stop-color="#ED7558"/>
</linearGradient>
<linearGradient id="paint17_linear_1_163" x1="273.253" y1="-6.10352e-05" x2="273.253" y2="155" gradientUnits="userSpaceOnUse">
<stop stop-color="#EDEFF0"/>
<stop offset="1" stop-color="white"/>
</linearGradient>
<linearGradient id="paint18_linear_1_163" x1="286.753" y1="33.5644" x2="286.132" y2="39.3751" gradientUnits="userSpaceOnUse">
<stop stop-color="#C5103C"/>
<stop offset="1" stop-color="#ED7558"/>
</linearGradient>
<linearGradient id="paint19_linear_1_163" x1="279.255" y1="112" x2="255.156" y2="116.671" gradientUnits="userSpaceOnUse">
<stop stop-color="#C51092"/>
<stop offset="1" stop-color="#ED7558"/>
</linearGradient>
</defs>
</svg>
